<svg width="70" height="70" viewBox="0 0 70 70" fill="none" xmlns="http://www.w3.org/2000/svg">
<path d="M14.3182 4.77273V23.8636L22.2728 31.8182C22.2728 31.8182 21.4773 40.8895 21.4773 49.3182C21.4773 57.7468 22.2728 70 22.2728 70H25.4546C25.4546 70 26.2501 57.6832 26.2501 49.3182C26.2501 40.9532 25.4546 31.8182 25.4546 31.8182L33.4091 23.8636V4.77273L30.2273 0V22.3109L23.8637 28.3755L17.5064 22.3109V0L14.3182 4.77273Z" fill="white"/>
<path d="M55.6818 23.59C55.6818 20.4177 54.0909 0 46.1364 0C38.1819 0 36.5909 20.4177 36.5909 23.59C36.5909 29.9377 44.5455 31.92 44.5455 31.92C44.5455 31.92 43.75 41.44 43.75 49.3723C43.75 57.3077 44.5455 70 44.5455 70H47.7273C47.7273 70 48.5228 57.6609 48.5228 49.3723C48.5228 41.0868 47.7273 31.92 47.7273 31.92C47.7273 31.92 55.6818 29.9377 55.6818 23.59ZM46.1364 28.6364C38.7037 28.6364 38.7896 23.6632 39.7728 15.9091C40.7559 8.155 43.8932 3.18182 46.1364 3.18182C48.3796 3.18182 51.5455 8.38091 52.5 15.9091C53.4546 23.4373 53.5691 28.6364 46.1364 28.6364Z" fill="white"/>
<path d="M25.4546 0H22.2728V22.2727H25.4546V0Z" fill="white"/>
</svg>
